<mxfile host="65bd71144e">
    <diagram id="yRzsNNlzmwT56zNl8328" name="ページ1">
        <mxGraphModel dx="1032" dy="677" grid="1" gridSize="10" guides="1" tooltips="1" connect="1" arrows="1" fold="1" page="1" pageScale="1" pageWidth="1169" pageHeight="827" background="none" math="0" shadow="0">
            <root>
                <mxCell id="0"/>
                <mxCell id="1" parent="0"/>
                <mxCell id="111" value="" style="fontSize=12;html=1;endArrow=ERoneToMany;fontColor=#FFFFFF;edgeStyle=orthogonalEdgeStyle;exitX=1;exitY=0.5;exitDx=0;exitDy=0;fillColor=#e51400;strokeColor=#D79B00;rounded=1;strokeWidth=1;entryX=0;entryY=0.5;entryDx=0;entryDy=0;" parent="1" source="220" target="277" edge="1">
                    <mxGeometry width="100" height="100" relative="1" as="geometry">
                        <mxPoint x="770.0000000000002" y="690.5400000000002" as="sourcePoint"/>
                        <mxPoint x="750" y="610" as="targetPoint"/>
                        <Array as="points">
                            <mxPoint x="820" y="160"/>
                            <mxPoint x="820" y="90"/>
                            <mxPoint x="570" y="90"/>
                            <mxPoint x="570" y="590"/>
                        </Array>
                    </mxGeometry>
                </mxCell>
                <mxCell id="163" value="users" style="shape=table;startSize=20;container=1;collapsible=1;childLayout=tableLayout;fixedRows=1;rowLines=0;fontStyle=1;align=center;resizeLast=1;fillStyle=auto;strokeColor=#D79B00;strokeWidth=1;fontColor=#000000;fillColor=#D79B00;gradientColor=none;gradientDirection=radial;verticalAlign=middle;rounded=0;shadow=0;spacing=0;" parent="1" vertex="1">
                    <mxGeometry x="40" y="40" width="140" height="160" as="geometry"/>
                </mxCell>
                <mxCell id="164" value="" style="shape=tableRow;horizontal=0;startSize=0;swimlaneHead=0;swimlaneBody=0;fillColor=none;collapsible=0;dropTarget=0;points=[[0,0.5],[1,0.5]];portConstraint=eastwest;top=0;left=0;right=0;bottom=1;fillStyle=auto;strokeColor=#D79B00;strokeWidth=1;fontColor=#000000;" parent="163" vertex="1">
                    <mxGeometry y="20" width="140" height="20" as="geometry"/>
                </mxCell>
                <mxCell id="165" value="PK" style="shape=partialRectangle;connectable=0;fillColor=#FFFFFF;top=1;left=1;bottom=1;right=1;fontStyle=1;overflow=hidden;fillStyle=auto;strokeColor=#D79B00;strokeWidth=1;fontColor=#000000;gradientColor=none;align=center;spacingLeft=0;labelBackgroundColor=none;dashed=1;dashPattern=1 1;spacing=0;" parent="164" vertex="1">
                    <mxGeometry width="30" height="20" as="geometry">
                        <mxRectangle width="30" height="20" as="alternateBounds"/>
                    </mxGeometry>
                </mxCell>
                <mxCell id="166" value="id" style="shape=partialRectangle;connectable=0;fillColor=#FFFFFF;top=1;left=1;bottom=1;right=1;align=left;spacingLeft=6;fontStyle=5;overflow=hidden;fillStyle=auto;strokeColor=#D79B00;strokeWidth=1;fontColor=#000000;labelBackgroundColor=none;dashed=1;dashPattern=1 1;noLabel=0;portConstraintRotation=0;spacing=0;" parent="164" vertex="1">
                    <mxGeometry x="30" width="110" height="20" as="geometry">
                        <mxRectangle width="110" height="20" as="alternateBounds"/>
                    </mxGeometry>
                </mxCell>
                <mxCell id="167" value="" style="shape=tableRow;horizontal=1;startSize=0;swimlaneHead=0;swimlaneBody=0;fillColor=none;collapsible=0;dropTarget=0;points=[[0,0.5],[1,0.5]];portConstraint=eastwest;top=0;left=0;right=0;bottom=0;fillStyle=auto;strokeColor=#D79B00;strokeWidth=1;fontColor=#000000;swimlaneFillColor=default;labelBorderColor=none;labelBackgroundColor=#FF3333;" parent="163" vertex="1">
                    <mxGeometry y="40" width="140" height="20" as="geometry"/>
                </mxCell>
                <mxCell id="168" value="" style="shape=partialRectangle;connectable=0;fillColor=#CCCCCC;top=1;left=1;bottom=0;right=0;editable=1;overflow=hidden;fillStyle=auto;strokeColor=#D79B00;strokeWidth=1;fontColor=#000000;spacing=0;" parent="167" vertex="1">
                    <mxGeometry width="30" height="20" as="geometry">
                        <mxRectangle width="30" height="20" as="alternateBounds"/>
                    </mxGeometry>
                </mxCell>
                <mxCell id="169" value="username" style="shape=partialRectangle;connectable=0;fillColor=#CCCCCC;top=1;left=1;bottom=0;right=1;align=left;spacingLeft=6;overflow=hidden;fillStyle=auto;strokeColor=#D79B00;strokeWidth=1;fontColor=#000000;fontStyle=1;perimeterSpacing=0;spacing=0;" parent="167" vertex="1">
                    <mxGeometry x="30" width="110" height="20" as="geometry">
                        <mxRectangle width="110" height="20" as="alternateBounds"/>
                    </mxGeometry>
                </mxCell>
                <mxCell id="170" value="" style="shape=tableRow;horizontal=0;startSize=0;swimlaneHead=0;swimlaneBody=0;fillColor=none;collapsible=0;dropTarget=0;points=[[0,0.5],[1,0.5]];portConstraint=eastwest;top=0;left=0;right=0;bottom=0;fillStyle=auto;strokeColor=none;strokeWidth=0;fontColor=#000000;" parent="163" vertex="1">
                    <mxGeometry y="60" width="140" height="20" as="geometry"/>
                </mxCell>
                <mxCell id="171" value="" style="shape=partialRectangle;connectable=0;fillColor=#FFFFFF;top=0;left=1;bottom=0;right=1;editable=1;overflow=hidden;fillStyle=auto;strokeColor=#D79B00;strokeWidth=1;fontColor=#000000;spacing=0;" parent="170" vertex="1">
                    <mxGeometry width="30" height="20" as="geometry">
                        <mxRectangle width="30" height="20" as="alternateBounds"/>
                    </mxGeometry>
                </mxCell>
                <mxCell id="172" value="email" style="shape=partialRectangle;connectable=0;fillColor=#FFFFFF;top=0;left=1;bottom=0;right=1;align=left;spacingLeft=6;overflow=hidden;fillStyle=auto;strokeColor=#D79B00;strokeWidth=1;fontColor=#000000;fontStyle=1;spacing=0;" parent="170" vertex="1">
                    <mxGeometry x="30" width="110" height="20" as="geometry">
                        <mxRectangle width="110" height="20" as="alternateBounds"/>
                    </mxGeometry>
                </mxCell>
                <mxCell id="188" value="" style="shape=tableRow;horizontal=0;startSize=0;swimlaneHead=0;swimlaneBody=0;fillColor=none;collapsible=0;dropTarget=0;points=[[0,0.5],[1,0.5]];portConstraint=eastwest;top=0;left=0;right=0;bottom=0;fillStyle=auto;strokeColor=none;strokeWidth=0;fontColor=#000000;" parent="163" vertex="1">
                    <mxGeometry y="80" width="140" height="20" as="geometry"/>
                </mxCell>
                <mxCell id="189" value="" style="shape=partialRectangle;connectable=0;fillColor=#CCCCCC;top=0;left=1;bottom=0;right=1;editable=1;overflow=hidden;fillStyle=auto;strokeColor=#D79B00;strokeWidth=1;fontColor=#000000;spacing=0;" parent="188" vertex="1">
                    <mxGeometry width="30" height="20" as="geometry">
                        <mxRectangle width="30" height="20" as="alternateBounds"/>
                    </mxGeometry>
                </mxCell>
                <mxCell id="190" value="password" style="shape=partialRectangle;connectable=0;fillColor=#CCCCCC;top=0;left=1;bottom=0;right=1;align=left;spacingLeft=6;overflow=hidden;fillStyle=auto;strokeColor=#D79B00;strokeWidth=1;fontColor=#000000;fontStyle=1;spacing=0;" parent="188" vertex="1">
                    <mxGeometry x="30" width="110" height="20" as="geometry">
                        <mxRectangle width="110" height="20" as="alternateBounds"/>
                    </mxGeometry>
                </mxCell>
                <mxCell id="210" value="" style="shape=tableRow;horizontal=0;startSize=0;swimlaneHead=0;swimlaneBody=0;fillColor=none;collapsible=0;dropTarget=0;points=[[0,0.5],[1,0.5]];portConstraint=eastwest;top=0;left=0;right=0;bottom=0;fillStyle=auto;strokeColor=none;strokeWidth=0;fontColor=#000000;" parent="163" vertex="1">
                    <mxGeometry y="100" width="140" height="20" as="geometry"/>
                </mxCell>
                <mxCell id="211" value="" style="shape=partialRectangle;connectable=0;fillColor=#FFFFFF;top=0;left=1;bottom=0;right=1;editable=1;overflow=hidden;fillStyle=auto;strokeColor=#D79B00;strokeWidth=1;fontColor=#000000;spacing=0;" parent="210" vertex="1">
                    <mxGeometry width="30" height="20" as="geometry">
                        <mxRectangle width="30" height="20" as="alternateBounds"/>
                    </mxGeometry>
                </mxCell>
                <mxCell id="212" value="fullname" style="shape=partialRectangle;connectable=0;fillColor=#FFFFFF;top=0;left=1;bottom=0;right=1;align=left;spacingLeft=6;overflow=hidden;fillStyle=auto;strokeColor=#D79B00;strokeWidth=1;fontColor=#000000;fontStyle=1;spacing=0;" parent="210" vertex="1">
                    <mxGeometry x="30" width="110" height="20" as="geometry">
                        <mxRectangle width="110" height="20" as="alternateBounds"/>
                    </mxGeometry>
                </mxCell>
                <mxCell id="213" value="" style="shape=tableRow;horizontal=0;startSize=0;swimlaneHead=0;swimlaneBody=0;fillColor=none;collapsible=0;dropTarget=0;points=[[0,0.5],[1,0.5]];portConstraint=eastwest;top=0;left=0;right=0;bottom=0;fillStyle=auto;strokeColor=none;strokeWidth=0;fontColor=#000000;" parent="163" vertex="1">
                    <mxGeometry y="120" width="140" height="20" as="geometry"/>
                </mxCell>
                <mxCell id="214" value="" style="shape=partialRectangle;connectable=0;fillColor=#CCCCCC;top=0;left=1;bottom=0;right=1;editable=1;overflow=hidden;fillStyle=auto;strokeColor=#D79B00;strokeWidth=1;fontColor=#000000;spacing=0;" parent="213" vertex="1">
                    <mxGeometry width="30" height="20" as="geometry">
                        <mxRectangle width="30" height="20" as="alternateBounds"/>
                    </mxGeometry>
                </mxCell>
                <mxCell id="215" value="fullname_huri" style="shape=partialRectangle;connectable=0;fillColor=#CCCCCC;top=0;left=1;bottom=0;right=1;align=left;spacingLeft=6;overflow=hidden;fillStyle=auto;strokeColor=#D79B00;strokeWidth=1;fontColor=#000000;fontStyle=1;spacing=0;" parent="213" vertex="1">
                    <mxGeometry x="30" width="110" height="20" as="geometry">
                        <mxRectangle width="110" height="20" as="alternateBounds"/>
                    </mxGeometry>
                </mxCell>
                <mxCell id="216" value="" style="shape=tableRow;horizontal=0;startSize=0;swimlaneHead=0;swimlaneBody=0;fillColor=none;collapsible=0;dropTarget=0;points=[[0,0.5],[1,0.5]];portConstraint=eastwest;top=0;left=0;right=0;bottom=0;fillStyle=auto;strokeColor=none;strokeWidth=0;fontColor=#000000;" parent="163" vertex="1">
                    <mxGeometry y="140" width="140" height="20" as="geometry"/>
                </mxCell>
                <mxCell id="217" value="" style="shape=partialRectangle;connectable=0;fillColor=#FFFFFF;top=0;left=1;bottom=0;right=1;editable=1;overflow=hidden;fillStyle=auto;strokeColor=#D79B00;strokeWidth=1;fontColor=#000000;spacing=0;" parent="216" vertex="1">
                    <mxGeometry width="30" height="20" as="geometry">
                        <mxRectangle width="30" height="20" as="alternateBounds"/>
                    </mxGeometry>
                </mxCell>
                <mxCell id="218" value="roll" style="shape=partialRectangle;connectable=0;fillColor=#FFFFFF;top=0;left=1;bottom=0;right=1;align=left;spacingLeft=6;overflow=hidden;fillStyle=auto;strokeColor=#D79B00;strokeWidth=1;fontColor=#000000;fontStyle=1;spacing=0;" parent="216" vertex="1">
                    <mxGeometry x="30" width="110" height="20" as="geometry">
                        <mxRectangle width="110" height="20" as="alternateBounds"/>
                    </mxGeometry>
                </mxCell>
                <mxCell id="219" value="tweets" style="shape=table;startSize=20;container=1;collapsible=1;childLayout=tableLayout;fixedRows=1;rowLines=0;fontStyle=1;align=center;resizeLast=1;fillStyle=auto;strokeColor=#D79B00;strokeWidth=1;fontColor=#000000;fillColor=#D79B00;gradientColor=none;gradientDirection=radial;verticalAlign=middle;rounded=0;shadow=0;spacing=0;" parent="1" vertex="1">
                    <mxGeometry x="620" y="130" width="160" height="120" as="geometry"/>
                </mxCell>
                <mxCell id="220" value="" style="shape=tableRow;horizontal=0;startSize=0;swimlaneHead=0;swimlaneBody=0;fillColor=none;collapsible=0;dropTarget=0;points=[[0,0.5],[1,0.5]];portConstraint=eastwest;top=0;left=0;right=0;bottom=1;fillStyle=auto;strokeColor=#D79B00;strokeWidth=1;fontColor=#000000;" parent="219" vertex="1">
                    <mxGeometry y="20" width="160" height="20" as="geometry"/>
                </mxCell>
                <mxCell id="221" value="PK" style="shape=partialRectangle;connectable=0;fillColor=#FFFFFF;top=1;left=1;bottom=1;right=1;fontStyle=1;overflow=hidden;fillStyle=auto;strokeColor=#D79B00;strokeWidth=1;fontColor=#000000;gradientColor=none;align=center;spacingLeft=0;labelBackgroundColor=none;dashed=1;dashPattern=1 1;" parent="220" vertex="1">
                    <mxGeometry width="30" height="20" as="geometry">
                        <mxRectangle width="30" height="20" as="alternateBounds"/>
                    </mxGeometry>
                </mxCell>
                <mxCell id="222" value="id" style="shape=partialRectangle;connectable=0;fillColor=#FFFFFF;top=1;left=1;bottom=1;right=1;align=left;spacingLeft=6;fontStyle=5;overflow=hidden;fillStyle=auto;strokeColor=#D79B00;strokeWidth=1;fontColor=#000000;labelBackgroundColor=none;dashed=1;dashPattern=1 1;noLabel=0;portConstraintRotation=0;spacing=0;" parent="220" vertex="1">
                    <mxGeometry x="30" width="130" height="20" as="geometry">
                        <mxRectangle width="130" height="20" as="alternateBounds"/>
                    </mxGeometry>
                </mxCell>
                <mxCell id="223" value="" style="shape=tableRow;horizontal=1;startSize=0;swimlaneHead=0;swimlaneBody=0;fillColor=none;collapsible=0;dropTarget=0;points=[[0,0.5],[1,0.5]];portConstraint=eastwest;top=0;left=0;right=0;bottom=0;fillStyle=auto;strokeColor=#D79B00;strokeWidth=1;fontColor=#000000;swimlaneFillColor=default;labelBorderColor=none;labelBackgroundColor=#FF3333;" parent="219" vertex="1">
                    <mxGeometry y="40" width="160" height="20" as="geometry"/>
                </mxCell>
                <mxCell id="224" value="FK" style="shape=partialRectangle;connectable=0;fillColor=#CCCCCC;top=1;left=1;bottom=0;right=0;editable=1;overflow=hidden;fillStyle=auto;strokeColor=#D79B00;strokeWidth=1;fontColor=#000000;fontStyle=1;align=center;gradientColor=none;spacingLeft=-1;labelBackgroundColor=none;dashed=1;dashPattern=1 1;" parent="223" vertex="1">
                    <mxGeometry width="30" height="20" as="geometry">
                        <mxRectangle width="30" height="20" as="alternateBounds"/>
                    </mxGeometry>
                </mxCell>
                <mxCell id="225" value="user_id" style="shape=partialRectangle;connectable=0;fillColor=#CCCCCC;top=1;left=1;bottom=0;right=1;align=left;spacingLeft=6;overflow=hidden;fillStyle=auto;strokeColor=#D79B00;strokeWidth=1;fontColor=#000000;fontStyle=1;perimeterSpacing=0;spacing=0;" parent="223" vertex="1">
                    <mxGeometry x="30" width="130" height="20" as="geometry">
                        <mxRectangle width="130" height="20" as="alternateBounds"/>
                    </mxGeometry>
                </mxCell>
                <mxCell id="226" value="" style="shape=tableRow;horizontal=0;startSize=0;swimlaneHead=0;swimlaneBody=0;fillColor=none;collapsible=0;dropTarget=0;points=[[0,0.5],[1,0.5]];portConstraint=eastwest;top=0;left=0;right=0;bottom=0;fillStyle=auto;strokeColor=none;strokeWidth=0;fontColor=#000000;" parent="219" vertex="1">
                    <mxGeometry y="60" width="160" height="20" as="geometry"/>
                </mxCell>
                <mxCell id="227" value="" style="shape=partialRectangle;connectable=0;fillColor=#FFFFFF;top=0;left=1;bottom=0;right=1;editable=1;overflow=hidden;fillStyle=auto;strokeColor=#D79B00;strokeWidth=1;fontColor=#000000;" parent="226" vertex="1">
                    <mxGeometry width="30" height="20" as="geometry">
                        <mxRectangle width="30" height="20" as="alternateBounds"/>
                    </mxGeometry>
                </mxCell>
                <mxCell id="228" value="content" style="shape=partialRectangle;connectable=0;fillColor=#FFFFFF;top=0;left=1;bottom=0;right=1;align=left;spacingLeft=6;overflow=hidden;fillStyle=auto;strokeColor=#D79B00;strokeWidth=1;fontColor=#000000;fontStyle=1;spacing=0;" parent="226" vertex="1">
                    <mxGeometry x="30" width="130" height="20" as="geometry">
                        <mxRectangle width="130" height="20" as="alternateBounds"/>
                    </mxGeometry>
                </mxCell>
                <mxCell id="229" value="" style="shape=tableRow;horizontal=0;startSize=0;swimlaneHead=0;swimlaneBody=0;fillColor=none;collapsible=0;dropTarget=0;points=[[0,0.5],[1,0.5]];portConstraint=eastwest;top=0;left=0;right=0;bottom=0;fillStyle=auto;strokeColor=none;strokeWidth=0;fontColor=#000000;" parent="219" vertex="1">
                    <mxGeometry y="80" width="160" height="20" as="geometry"/>
                </mxCell>
                <mxCell id="230" value="" style="shape=partialRectangle;connectable=0;fillColor=#CCCCCC;top=0;left=1;bottom=0;right=1;editable=1;overflow=hidden;fillStyle=auto;strokeColor=#D79B00;strokeWidth=1;fontColor=#000000;" parent="229" vertex="1">
                    <mxGeometry width="30" height="20" as="geometry">
                        <mxRectangle width="30" height="20" as="alternateBounds"/>
                    </mxGeometry>
                </mxCell>
                <mxCell id="231" value="image" style="shape=partialRectangle;connectable=0;fillColor=#CCCCCC;top=0;left=1;bottom=0;right=1;align=left;spacingLeft=6;overflow=hidden;fillStyle=auto;strokeColor=#D79B00;strokeWidth=1;fontColor=#000000;fontStyle=1;spacing=0;" parent="229" vertex="1">
                    <mxGeometry x="30" width="130" height="20" as="geometry">
                        <mxRectangle width="130" height="20" as="alternateBounds"/>
                    </mxGeometry>
                </mxCell>
                <mxCell id="232" value="" style="shape=tableRow;horizontal=0;startSize=0;swimlaneHead=0;swimlaneBody=0;fillColor=none;collapsible=0;dropTarget=0;points=[[0,0.5],[1,0.5]];portConstraint=eastwest;top=0;left=0;right=0;bottom=0;fillStyle=auto;strokeColor=none;strokeWidth=0;fontColor=#000000;" parent="219" vertex="1">
                    <mxGeometry y="100" width="160" height="20" as="geometry"/>
                </mxCell>
                <mxCell id="233" value="" style="shape=partialRectangle;connectable=0;fillColor=#FFFFFF;top=0;left=1;bottom=1;right=1;editable=1;overflow=hidden;fillStyle=auto;strokeColor=#D79B00;strokeWidth=1;fontColor=#000000;" parent="232" vertex="1">
                    <mxGeometry width="30" height="20" as="geometry">
                        <mxRectangle width="30" height="20" as="alternateBounds"/>
                    </mxGeometry>
                </mxCell>
                <mxCell id="234" value="create_date_time" style="shape=partialRectangle;connectable=0;fillColor=#FFFFFF;top=0;left=1;bottom=1;right=1;align=left;spacingLeft=6;overflow=hidden;fillStyle=auto;strokeColor=#D79B00;strokeWidth=1;fontColor=#000000;fontStyle=1;spacing=0;" parent="232" vertex="1">
                    <mxGeometry x="30" width="130" height="20" as="geometry">
                        <mxRectangle width="130" height="20" as="alternateBounds"/>
                    </mxGeometry>
                </mxCell>
                <mxCell id="270" value="favorites" style="shape=table;startSize=20;container=1;collapsible=1;childLayout=tableLayout;fixedRows=1;rowLines=0;fontStyle=1;align=center;resizeLast=1;fillStyle=auto;strokeColor=#D79B00;strokeWidth=1;fontColor=#000000;fillColor=#D79B00;gradientColor=none;gradientDirection=radial;verticalAlign=middle;rounded=0;shadow=0;spacing=0;" parent="1" vertex="1">
                    <mxGeometry x="800" y="520" width="160" height="80" as="geometry"/>
                </mxCell>
                <mxCell id="271" value="" style="shape=tableRow;horizontal=0;startSize=0;swimlaneHead=0;swimlaneBody=0;fillColor=none;collapsible=0;dropTarget=0;points=[[0,0.5],[1,0.5]];portConstraint=eastwest;top=0;left=0;right=0;bottom=1;fillStyle=auto;strokeColor=#D79B00;strokeWidth=1;fontColor=#000000;" parent="270" vertex="1">
                    <mxGeometry y="20" width="160" height="20" as="geometry"/>
                </mxCell>
                <mxCell id="272" value="PK" style="shape=partialRectangle;connectable=0;fillColor=#FFFFFF;top=1;left=1;bottom=1;right=1;fontStyle=1;overflow=hidden;fillStyle=auto;strokeColor=#D79B00;strokeWidth=1;fontColor=#000000;gradientColor=none;align=center;spacingLeft=0;labelBackgroundColor=none;dashed=1;dashPattern=1 1;spacing=0;" parent="271" vertex="1">
                    <mxGeometry width="30" height="20" as="geometry">
                        <mxRectangle width="30" height="20" as="alternateBounds"/>
                    </mxGeometry>
                </mxCell>
                <mxCell id="273" value="id" style="shape=partialRectangle;connectable=0;fillColor=#FFFFFF;top=1;left=1;bottom=1;right=1;align=left;spacingLeft=6;fontStyle=5;overflow=hidden;fillStyle=auto;strokeColor=#D79B00;strokeWidth=1;fontColor=#000000;labelBackgroundColor=none;dashed=1;dashPattern=1 1;noLabel=0;portConstraintRotation=0;spacing=0;" parent="271" vertex="1">
                    <mxGeometry x="30" width="130" height="20" as="geometry">
                        <mxRectangle width="130" height="20" as="alternateBounds"/>
                    </mxGeometry>
                </mxCell>
                <mxCell id="274" value="" style="shape=tableRow;horizontal=1;startSize=0;swimlaneHead=0;swimlaneBody=0;fillColor=none;collapsible=0;dropTarget=0;points=[[0,0.5],[1,0.5]];portConstraint=eastwest;top=0;left=0;right=0;bottom=0;fillStyle=auto;strokeColor=#D79B00;strokeWidth=1;fontColor=#000000;swimlaneFillColor=default;labelBorderColor=none;labelBackgroundColor=#FF3333;" parent="270" vertex="1">
                    <mxGeometry y="40" width="160" height="20" as="geometry"/>
                </mxCell>
                <mxCell id="275" value="FK" style="shape=partialRectangle;connectable=0;fillColor=#CCCCCC;top=1;left=1;bottom=0;right=0;editable=1;overflow=hidden;fillStyle=auto;strokeColor=#D79B00;strokeWidth=1;fontColor=#000000;fontStyle=1;align=center;gradientColor=none;spacingLeft=0;labelBackgroundColor=none;dashed=1;dashPattern=1 1;spacing=0;" parent="274" vertex="1">
                    <mxGeometry width="30" height="20" as="geometry">
                        <mxRectangle width="30" height="20" as="alternateBounds"/>
                    </mxGeometry>
                </mxCell>
                <mxCell id="276" value="user_id" style="shape=partialRectangle;connectable=0;fillColor=#CCCCCC;top=1;left=1;bottom=0;right=1;align=left;spacingLeft=6;overflow=hidden;fillStyle=auto;strokeColor=#D79B00;strokeWidth=1;fontColor=#000000;fontStyle=1;perimeterSpacing=0;spacing=0;" parent="274" vertex="1">
                    <mxGeometry x="30" width="130" height="20" as="geometry">
                        <mxRectangle width="130" height="20" as="alternateBounds"/>
                    </mxGeometry>
                </mxCell>
                <mxCell id="277" value="" style="shape=tableRow;horizontal=0;startSize=0;swimlaneHead=0;swimlaneBody=0;fillColor=none;collapsible=0;dropTarget=0;points=[[0,0.5],[1,0.5]];portConstraint=eastwest;top=0;left=0;right=0;bottom=0;fillStyle=auto;strokeColor=none;strokeWidth=0;fontColor=#000000;" parent="270" vertex="1">
                    <mxGeometry y="60" width="160" height="20" as="geometry"/>
                </mxCell>
                <mxCell id="278" value="FK" style="shape=partialRectangle;connectable=0;fillColor=#FFFFFF;top=0;left=1;bottom=1;right=1;editable=1;overflow=hidden;fillStyle=auto;strokeColor=#D79B00;strokeWidth=1;fontColor=#000000;fontStyle=1;align=center;spacing=0;" parent="277" vertex="1">
                    <mxGeometry width="30" height="20" as="geometry">
                        <mxRectangle width="30" height="20" as="alternateBounds"/>
                    </mxGeometry>
                </mxCell>
                <mxCell id="279" value="tweet_id" style="shape=partialRectangle;connectable=0;fillColor=#FFFFFF;top=0;left=1;bottom=1;right=1;align=left;spacingLeft=6;overflow=hidden;fillStyle=auto;strokeColor=#D79B00;strokeWidth=1;fontColor=#000000;fontStyle=1;spacing=0;" parent="277" vertex="1">
                    <mxGeometry x="30" width="130" height="20" as="geometry">
                        <mxRectangle width="130" height="20" as="alternateBounds"/>
                    </mxGeometry>
                </mxCell>
                <mxCell id="289" value="followers" style="shape=table;startSize=20;container=1;collapsible=1;childLayout=tableLayout;fixedRows=1;rowLines=0;fontStyle=1;align=center;resizeLast=1;fillStyle=auto;strokeColor=#D79B00;strokeWidth=1;fontColor=#000000;fillColor=#D79B00;gradientColor=none;gradientDirection=radial;verticalAlign=middle;rounded=0;shadow=0;spacing=0;" parent="1" vertex="1">
                    <mxGeometry x="800" y="240" width="160" height="60" as="geometry"/>
                </mxCell>
                <mxCell id="296" value="" style="shape=tableRow;horizontal=0;startSize=0;swimlaneHead=0;swimlaneBody=0;fillColor=none;collapsible=0;dropTarget=0;points=[[0,0.5],[1,0.5]];portConstraint=eastwest;top=0;left=0;right=0;bottom=0;fillStyle=auto;strokeColor=none;strokeWidth=0;fontColor=#000000;" parent="289" vertex="1">
                    <mxGeometry y="20" width="160" height="20" as="geometry"/>
                </mxCell>
                <mxCell id="297" value="FK" style="shape=partialRectangle;connectable=0;fillColor=#FFFFFF;top=0;left=1;bottom=0;right=1;editable=1;overflow=hidden;fillStyle=auto;strokeColor=#D79B00;strokeWidth=1;fontColor=#000000;fontStyle=1;align=center;spacing=0;" parent="296" vertex="1">
                    <mxGeometry width="30" height="20" as="geometry">
                        <mxRectangle width="30" height="20" as="alternateBounds"/>
                    </mxGeometry>
                </mxCell>
                <mxCell id="298" value="following_id" style="shape=partialRectangle;connectable=0;fillColor=#FFFFFF;top=0;left=1;bottom=0;right=1;align=left;spacingLeft=6;overflow=hidden;fillStyle=auto;strokeColor=#D79B00;strokeWidth=1;fontColor=#000000;fontStyle=1;spacing=0;" parent="296" vertex="1">
                    <mxGeometry x="30" width="130" height="20" as="geometry">
                        <mxRectangle width="130" height="20" as="alternateBounds"/>
                    </mxGeometry>
                </mxCell>
                <mxCell id="305" value="" style="shape=tableRow;horizontal=0;startSize=0;swimlaneHead=0;swimlaneBody=0;fillColor=none;collapsible=0;dropTarget=0;points=[[0,0.5],[1,0.5]];portConstraint=eastwest;top=0;left=0;right=0;bottom=0;fillStyle=auto;strokeColor=none;strokeWidth=1;fontColor=#000000;swimlaneFillColor=none;" parent="289" vertex="1">
                    <mxGeometry y="40" width="160" height="20" as="geometry"/>
                </mxCell>
                <mxCell id="306" value="FK" style="shape=partialRectangle;connectable=0;fillColor=#CCCCCC;top=0;left=1;bottom=1;right=1;editable=1;overflow=hidden;fillStyle=auto;strokeColor=#D79B00;strokeWidth=1;fontColor=#000000;spacing=0;fontStyle=1" parent="305" vertex="1">
                    <mxGeometry width="30" height="20" as="geometry">
                        <mxRectangle width="30" height="20" as="alternateBounds"/>
                    </mxGeometry>
                </mxCell>
                <mxCell id="307" value="followed_id" style="shape=partialRectangle;connectable=0;fillColor=#CCCCCC;top=0;left=1;bottom=1;right=1;align=left;spacingLeft=6;overflow=hidden;fillStyle=auto;strokeColor=#D79B00;strokeWidth=1;fontColor=#000000;fontStyle=1;spacing=0;" parent="305" vertex="1">
                    <mxGeometry x="30" width="130" height="20" as="geometry">
                        <mxRectangle width="130" height="20" as="alternateBounds"/>
                    </mxGeometry>
                </mxCell>
                <mxCell id="353" value="" style="fontSize=12;html=1;endArrow=ERoneToMany;fontColor=#FFFFFF;edgeStyle=orthogonalEdgeStyle;fillColor=#e51400;strokeColor=#D79B00;rounded=1;strokeWidth=1;exitX=1;exitY=0.5;exitDx=0;exitDy=0;entryX=0;entryY=0.5;entryDx=0;entryDy=0;" parent="1" source="164" target="452" edge="1">
                    <mxGeometry width="100" height="100" relative="1" as="geometry">
                        <mxPoint x="200" y="70" as="sourcePoint"/>
                        <mxPoint x="280" y="70" as="targetPoint"/>
                        <Array as="points">
                            <mxPoint x="240" y="70"/>
                            <mxPoint x="240" y="110"/>
                        </Array>
                    </mxGeometry>
                </mxCell>
                <mxCell id="408" value="" style="shape=tableRow;horizontal=0;startSize=0;swimlaneHead=0;swimlaneBody=0;fillColor=none;collapsible=0;dropTarget=0;points=[[0,0.5],[1,0.5]];portConstraint=eastwest;top=0;left=0;right=0;bottom=0;" vertex="1" parent="1">
                    <mxGeometry x="60" y="380" width="180" height="30" as="geometry"/>
                </mxCell>
                <mxCell id="409" value="" style="shape=partialRectangle;connectable=0;fillColor=none;top=0;left=0;bottom=0;right=0;editable=1;overflow=hidden;" vertex="1" parent="408">
                    <mxGeometry width="30" height="30" as="geometry">
                        <mxRectangle width="30" height="30" as="alternateBounds"/>
                    </mxGeometry>
                </mxCell>
                <mxCell id="411" value="" style="shape=tableRow;horizontal=0;startSize=0;swimlaneHead=0;swimlaneBody=0;fillColor=none;collapsible=0;dropTarget=0;points=[[0,0.5],[1,0.5]];portConstraint=eastwest;top=0;left=0;right=0;bottom=0;" vertex="1" parent="1">
                    <mxGeometry x="70" y="390" width="180" height="30" as="geometry"/>
                </mxCell>
                <mxCell id="414" value="" style="shape=tableRow;horizontal=0;startSize=0;swimlaneHead=0;swimlaneBody=0;fillColor=none;collapsible=0;dropTarget=0;points=[[0,0.5],[1,0.5]];portConstraint=eastwest;top=0;left=0;right=0;bottom=0;" vertex="1" parent="1">
                    <mxGeometry x="80" y="400" width="340" height="30" as="geometry"/>
                </mxCell>
                <mxCell id="415" value="" style="shape=partialRectangle;connectable=0;fillColor=none;top=0;left=0;bottom=0;right=0;editable=1;overflow=hidden;" vertex="1" parent="414">
                    <mxGeometry width="30" height="30" as="geometry">
                        <mxRectangle width="30" height="30" as="alternateBounds"/>
                    </mxGeometry>
                </mxCell>
                <mxCell id="445" value="page_cover" style="shape=table;startSize=20;container=1;collapsible=1;childLayout=tableLayout;fixedRows=1;rowLines=0;fontStyle=1;align=center;resizeLast=1;fillStyle=auto;strokeColor=#D79B00;strokeWidth=1;fontColor=#000000;fillColor=#D79B00;gradientColor=none;gradientDirection=radial;verticalAlign=middle;rounded=0;shadow=0;spacing=0;" vertex="1" parent="1">
                    <mxGeometry x="280" y="40" width="180" height="260" as="geometry"/>
                </mxCell>
                <mxCell id="446" value="" style="shape=tableRow;horizontal=0;startSize=0;swimlaneHead=0;swimlaneBody=0;fillColor=none;collapsible=0;dropTarget=0;points=[[0,0.5],[1,0.5]];portConstraint=eastwest;top=0;left=0;right=0;bottom=1;fillStyle=auto;strokeColor=#D79B00;strokeWidth=1;fontColor=#000000;" vertex="1" parent="445">
                    <mxGeometry y="20" width="180" height="20" as="geometry"/>
                </mxCell>
                <mxCell id="447" value="PK" style="shape=partialRectangle;connectable=0;fillColor=#FFFFFF;top=1;left=1;bottom=1;right=1;fontStyle=1;overflow=hidden;fillStyle=auto;strokeColor=#D79B00;strokeWidth=1;fontColor=#000000;gradientColor=none;align=center;spacingLeft=0;labelBackgroundColor=none;dashed=1;dashPattern=1 1;spacing=0;" vertex="1" parent="446">
                    <mxGeometry width="30" height="20" as="geometry">
                        <mxRectangle width="30" height="20" as="alternateBounds"/>
                    </mxGeometry>
                </mxCell>
                <mxCell id="448" value="id" style="shape=partialRectangle;connectable=0;fillColor=#FFFFFF;top=1;left=1;bottom=1;right=1;align=left;spacingLeft=6;fontStyle=5;overflow=hidden;fillStyle=auto;strokeColor=#D79B00;strokeWidth=1;fontColor=#000000;labelBackgroundColor=none;dashed=1;dashPattern=1 1;noLabel=0;portConstraintRotation=0;spacing=0;" vertex="1" parent="446">
                    <mxGeometry x="30" width="150" height="20" as="geometry">
                        <mxRectangle width="150" height="20" as="alternateBounds"/>
                    </mxGeometry>
                </mxCell>
                <mxCell id="449" value="" style="shape=tableRow;horizontal=1;startSize=0;swimlaneHead=0;swimlaneBody=0;fillColor=none;collapsible=0;dropTarget=0;points=[[0,0.5],[1,0.5]];portConstraint=eastwest;top=0;left=0;right=0;bottom=0;fillStyle=auto;strokeColor=#D79B00;strokeWidth=1;fontColor=#000000;swimlaneFillColor=default;labelBorderColor=none;labelBackgroundColor=#FF3333;" vertex="1" parent="445">
                    <mxGeometry y="40" width="180" height="20" as="geometry"/>
                </mxCell>
                <mxCell id="450" value="" style="shape=partialRectangle;connectable=0;fillColor=#CCCCCC;top=1;left=1;bottom=0;right=0;editable=1;overflow=hidden;fillStyle=auto;strokeColor=#D79B00;strokeWidth=1;fontColor=#000000;spacing=0;" vertex="1" parent="449">
                    <mxGeometry width="30" height="20" as="geometry">
                        <mxRectangle width="30" height="20" as="alternateBounds"/>
                    </mxGeometry>
                </mxCell>
                <mxCell id="451" value="issue_date" style="shape=partialRectangle;connectable=0;fillColor=#CCCCCC;top=1;left=1;bottom=0;right=1;align=left;spacingLeft=6;overflow=hidden;fillStyle=auto;strokeColor=#D79B00;strokeWidth=1;fontColor=#000000;fontStyle=1;perimeterSpacing=0;spacing=0;" vertex="1" parent="449">
                    <mxGeometry x="30" width="150" height="20" as="geometry">
                        <mxRectangle width="150" height="20" as="alternateBounds"/>
                    </mxGeometry>
                </mxCell>
                <mxCell id="452" value="" style="shape=tableRow;horizontal=0;startSize=0;swimlaneHead=0;swimlaneBody=0;fillColor=none;collapsible=0;dropTarget=0;points=[[0,0.5],[1,0.5]];portConstraint=eastwest;top=0;left=0;right=0;bottom=0;fillStyle=auto;strokeColor=none;strokeWidth=0;fontColor=#000000;" vertex="1" parent="445">
                    <mxGeometry y="60" width="180" height="20" as="geometry"/>
                </mxCell>
                <mxCell id="453" value="" style="shape=partialRectangle;connectable=0;fillColor=#FFFFFF;top=0;left=1;bottom=0;right=1;editable=1;overflow=hidden;fillStyle=auto;strokeColor=#D79B00;strokeWidth=1;fontColor=#000000;spacing=0;" vertex="1" parent="452">
                    <mxGeometry width="30" height="20" as="geometry">
                        <mxRectangle width="30" height="20" as="alternateBounds"/>
                    </mxGeometry>
                </mxCell>
                <mxCell id="454" value="user_id" style="shape=partialRectangle;connectable=0;fillColor=#FFFFFF;top=0;left=1;bottom=0;right=1;align=left;spacingLeft=6;overflow=hidden;fillStyle=auto;strokeColor=#D79B00;strokeWidth=1;fontColor=#000000;fontStyle=1;spacing=0;" vertex="1" parent="452">
                    <mxGeometry x="30" width="150" height="20" as="geometry">
                        <mxRectangle width="150" height="20" as="alternateBounds"/>
                    </mxGeometry>
                </mxCell>
                <mxCell id="455" value="" style="shape=tableRow;horizontal=0;startSize=0;swimlaneHead=0;swimlaneBody=0;fillColor=none;collapsible=0;dropTarget=0;points=[[0,0.5],[1,0.5]];portConstraint=eastwest;top=0;left=0;right=0;bottom=0;fillStyle=auto;strokeColor=none;strokeWidth=0;fontColor=#000000;" vertex="1" parent="445">
                    <mxGeometry y="80" width="180" height="20" as="geometry"/>
                </mxCell>
                <mxCell id="456" value="" style="shape=partialRectangle;connectable=0;fillColor=#CCCCCC;top=0;left=1;bottom=0;right=1;editable=1;overflow=hidden;fillStyle=auto;strokeColor=#D79B00;strokeWidth=1;fontColor=#000000;spacing=0;" vertex="1" parent="455">
                    <mxGeometry width="30" height="20" as="geometry">
                        <mxRectangle width="30" height="20" as="alternateBounds"/>
                    </mxGeometry>
                </mxCell>
                <mxCell id="457" value="parent_fullname1" style="shape=partialRectangle;connectable=0;fillColor=#CCCCCC;top=0;left=1;bottom=0;right=1;align=left;spacingLeft=6;overflow=hidden;fillStyle=auto;strokeColor=#D79B00;strokeWidth=1;fontColor=#000000;fontStyle=1;spacing=0;" vertex="1" parent="455">
                    <mxGeometry x="30" width="150" height="20" as="geometry">
                        <mxRectangle width="150" height="20" as="alternateBounds"/>
                    </mxGeometry>
                </mxCell>
                <mxCell id="458" value="" style="shape=tableRow;horizontal=0;startSize=0;swimlaneHead=0;swimlaneBody=0;fillColor=none;collapsible=0;dropTarget=0;points=[[0,0.5],[1,0.5]];portConstraint=eastwest;top=0;left=0;right=0;bottom=0;fillStyle=auto;strokeColor=none;strokeWidth=0;fontColor=#000000;" vertex="1" parent="445">
                    <mxGeometry y="100" width="180" height="20" as="geometry"/>
                </mxCell>
                <mxCell id="459" value="" style="shape=partialRectangle;connectable=0;fillColor=#FFFFFF;top=0;left=1;bottom=0;right=1;editable=1;overflow=hidden;fillStyle=auto;strokeColor=#D79B00;strokeWidth=1;fontColor=#000000;spacing=0;" vertex="1" parent="458">
                    <mxGeometry width="30" height="20" as="geometry">
                        <mxRectangle width="30" height="20" as="alternateBounds"/>
                    </mxGeometry>
                </mxCell>
                <mxCell id="460" value="parent_fullname_huri1" style="shape=partialRectangle;connectable=0;fillColor=#FFFFFF;top=0;left=1;bottom=0;right=1;align=left;spacingLeft=6;overflow=hidden;fillStyle=auto;strokeColor=#D79B00;strokeWidth=1;fontColor=#000000;fontStyle=1;spacing=0;" vertex="1" parent="458">
                    <mxGeometry x="30" width="150" height="20" as="geometry">
                        <mxRectangle width="150" height="20" as="alternateBounds"/>
                    </mxGeometry>
                </mxCell>
                <mxCell id="461" value="" style="shape=tableRow;horizontal=0;startSize=0;swimlaneHead=0;swimlaneBody=0;fillColor=none;collapsible=0;dropTarget=0;points=[[0,0.5],[1,0.5]];portConstraint=eastwest;top=0;left=0;right=0;bottom=0;fillStyle=auto;strokeColor=none;strokeWidth=0;fontColor=#000000;" vertex="1" parent="445">
                    <mxGeometry y="120" width="180" height="20" as="geometry"/>
                </mxCell>
                <mxCell id="462" value="" style="shape=partialRectangle;connectable=0;fillColor=#CCCCCC;top=0;left=1;bottom=0;right=1;editable=1;overflow=hidden;fillStyle=auto;strokeColor=#D79B00;strokeWidth=1;fontColor=#000000;spacing=0;" vertex="1" parent="461">
                    <mxGeometry width="30" height="20" as="geometry">
                        <mxRectangle width="30" height="20" as="alternateBounds"/>
                    </mxGeometry>
                </mxCell>
                <mxCell id="463" value="parent_fullname2" style="shape=partialRectangle;connectable=0;fillColor=#CCCCCC;top=0;left=1;bottom=0;right=1;align=left;spacingLeft=6;overflow=hidden;fillStyle=auto;strokeColor=#D79B00;strokeWidth=1;fontColor=#000000;fontStyle=1;spacing=0;" vertex="1" parent="461">
                    <mxGeometry x="30" width="150" height="20" as="geometry">
                        <mxRectangle width="150" height="20" as="alternateBounds"/>
                    </mxGeometry>
                </mxCell>
                <mxCell id="464" value="" style="shape=tableRow;horizontal=0;startSize=0;swimlaneHead=0;swimlaneBody=0;fillColor=none;collapsible=0;dropTarget=0;points=[[0,0.5],[1,0.5]];portConstraint=eastwest;top=0;left=0;right=0;bottom=0;fillStyle=auto;strokeColor=none;strokeWidth=0;fontColor=#000000;" vertex="1" parent="445">
                    <mxGeometry y="140" width="180" height="20" as="geometry"/>
                </mxCell>
                <mxCell id="465" value="" style="shape=partialRectangle;connectable=0;fillColor=#FFFFFF;top=0;left=1;bottom=0;right=1;editable=1;overflow=hidden;fillStyle=auto;strokeColor=#D79B00;strokeWidth=1;fontColor=#000000;spacing=0;" vertex="1" parent="464">
                    <mxGeometry width="30" height="20" as="geometry">
                        <mxRectangle width="30" height="20" as="alternateBounds"/>
                    </mxGeometry>
                </mxCell>
                <mxCell id="466" value="parent_fullname_huri2" style="shape=partialRectangle;connectable=0;fillColor=#FFFFFF;top=0;left=1;bottom=0;right=1;align=left;spacingLeft=6;overflow=hidden;fillStyle=auto;strokeColor=#D79B00;strokeWidth=1;fontColor=#000000;fontStyle=1;spacing=0;" vertex="1" parent="464">
                    <mxGeometry x="30" width="150" height="20" as="geometry">
                        <mxRectangle width="150" height="20" as="alternateBounds"/>
                    </mxGeometry>
                </mxCell>
                <mxCell id="514" style="shape=tableRow;horizontal=0;startSize=0;swimlaneHead=0;swimlaneBody=0;fillColor=none;collapsible=0;dropTarget=0;points=[[0,0.5],[1,0.5]];portConstraint=eastwest;top=0;left=0;right=0;bottom=0;fillStyle=auto;strokeColor=none;strokeWidth=0;fontColor=#000000;" vertex="1" parent="445">
                    <mxGeometry y="160" width="180" height="20" as="geometry"/>
                </mxCell>
                <mxCell id="515" style="shape=partialRectangle;connectable=0;fillColor=#CCCCCC;top=0;left=1;bottom=0;right=1;editable=1;overflow=hidden;fillStyle=auto;strokeColor=#D79B00;strokeWidth=1;fontColor=#000000;spacing=0;" vertex="1" parent="514">
                    <mxGeometry width="30" height="20" as="geometry">
                        <mxRectangle width="30" height="20" as="alternateBounds"/>
                    </mxGeometry>
                </mxCell>
                <mxCell id="516" value="child_fullname" style="shape=partialRectangle;connectable=0;fillColor=#CCCCCC;top=0;left=1;bottom=0;right=1;align=left;spacingLeft=6;overflow=hidden;fillStyle=auto;strokeColor=#D79B00;strokeWidth=1;fontColor=#000000;fontStyle=1;spacing=0;" vertex="1" parent="514">
                    <mxGeometry x="30" width="150" height="20" as="geometry">
                        <mxRectangle width="150" height="20" as="alternateBounds"/>
                    </mxGeometry>
                </mxCell>
                <mxCell id="517" style="shape=tableRow;horizontal=0;startSize=0;swimlaneHead=0;swimlaneBody=0;fillColor=none;collapsible=0;dropTarget=0;points=[[0,0.5],[1,0.5]];portConstraint=eastwest;top=0;left=0;right=0;bottom=0;fillStyle=auto;strokeColor=none;strokeWidth=0;fontColor=#000000;" vertex="1" parent="445">
                    <mxGeometry y="180" width="180" height="20" as="geometry"/>
                </mxCell>
                <mxCell id="518" style="shape=partialRectangle;connectable=0;fillColor=#FFFFFF;top=0;left=1;bottom=0;right=1;editable=1;overflow=hidden;fillStyle=auto;strokeColor=#D79B00;strokeWidth=1;fontColor=#000000;spacing=0;" vertex="1" parent="517">
                    <mxGeometry width="30" height="20" as="geometry">
                        <mxRectangle width="30" height="20" as="alternateBounds"/>
                    </mxGeometry>
                </mxCell>
                <mxCell id="519" value="child_fullname_huri" style="shape=partialRectangle;connectable=0;fillColor=#FFFFFF;top=0;left=1;bottom=0;right=1;align=left;spacingLeft=6;overflow=hidden;fillStyle=auto;strokeColor=#D79B00;strokeWidth=1;fontColor=#000000;fontStyle=1;spacing=0;" vertex="1" parent="517">
                    <mxGeometry x="30" width="150" height="20" as="geometry">
                        <mxRectangle width="150" height="20" as="alternateBounds"/>
                    </mxGeometry>
                </mxCell>
                <mxCell id="520" style="shape=tableRow;horizontal=0;startSize=0;swimlaneHead=0;swimlaneBody=0;fillColor=none;collapsible=0;dropTarget=0;points=[[0,0.5],[1,0.5]];portConstraint=eastwest;top=0;left=0;right=0;bottom=0;fillStyle=auto;strokeColor=none;strokeWidth=0;fontColor=#000000;" vertex="1" parent="445">
                    <mxGeometry y="200" width="180" height="20" as="geometry"/>
                </mxCell>
                <mxCell id="521" style="shape=partialRectangle;connectable=0;fillColor=#CCCCCC;top=0;left=1;bottom=0;right=1;editable=1;overflow=hidden;fillStyle=auto;strokeColor=#D79B00;strokeWidth=1;fontColor=#000000;spacing=0;" vertex="1" parent="520">
                    <mxGeometry width="30" height="20" as="geometry">
                        <mxRectangle width="30" height="20" as="alternateBounds"/>
                    </mxGeometry>
                </mxCell>
                <mxCell id="522" value="child_count" style="shape=partialRectangle;connectable=0;fillColor=#CCCCCC;top=0;left=1;bottom=0;right=1;align=left;spacingLeft=6;overflow=hidden;fillStyle=auto;strokeColor=#D79B00;strokeWidth=1;fontColor=#000000;fontStyle=1;spacing=0;" vertex="1" parent="520">
                    <mxGeometry x="30" width="150" height="20" as="geometry">
                        <mxRectangle width="150" height="20" as="alternateBounds"/>
                    </mxGeometry>
                </mxCell>
                <mxCell id="523" style="shape=tableRow;horizontal=0;startSize=0;swimlaneHead=0;swimlaneBody=0;fillColor=none;collapsible=0;dropTarget=0;points=[[0,0.5],[1,0.5]];portConstraint=eastwest;top=0;left=0;right=0;bottom=0;fillStyle=auto;strokeColor=none;strokeWidth=0;fontColor=#000000;" vertex="1" parent="445">
                    <mxGeometry y="220" width="180" height="20" as="geometry"/>
                </mxCell>
                <mxCell id="524" style="shape=partialRectangle;connectable=0;fillColor=#FFFFFF;top=0;left=1;bottom=0;right=1;editable=1;overflow=hidden;fillStyle=auto;strokeColor=#D79B00;strokeWidth=1;fontColor=#000000;spacing=0;" vertex="1" parent="523">
                    <mxGeometry width="30" height="20" as="geometry">
                        <mxRectangle width="30" height="20" as="alternateBounds"/>
                    </mxGeometry>
                </mxCell>
                <mxCell id="525" value="child_birthday" style="shape=partialRectangle;connectable=0;fillColor=#FFFFFF;top=0;left=1;bottom=0;right=1;align=left;spacingLeft=6;overflow=hidden;fillStyle=auto;strokeColor=#D79B00;strokeWidth=1;fontColor=#000000;fontStyle=1;spacing=0;" vertex="1" parent="523">
                    <mxGeometry x="30" width="150" height="20" as="geometry">
                        <mxRectangle width="150" height="20" as="alternateBounds"/>
                    </mxGeometry>
                </mxCell>
                <mxCell id="526" style="shape=tableRow;horizontal=0;startSize=0;swimlaneHead=0;swimlaneBody=0;fillColor=none;collapsible=0;dropTarget=0;points=[[0,0.5],[1,0.5]];portConstraint=eastwest;top=0;left=0;right=0;bottom=0;fillStyle=auto;strokeColor=none;strokeWidth=0;fontColor=#000000;" vertex="1" parent="445">
                    <mxGeometry y="240" width="180" height="20" as="geometry"/>
                </mxCell>
                <mxCell id="527" style="shape=partialRectangle;connectable=0;fillColor=#CCCCCC;top=0;left=1;bottom=0;right=1;editable=1;overflow=hidden;fillStyle=auto;strokeColor=#D79B00;strokeWidth=1;fontColor=#000000;spacing=0;" vertex="1" parent="526">
                    <mxGeometry width="30" height="20" as="geometry">
                        <mxRectangle width="30" height="20" as="alternateBounds"/>
                    </mxGeometry>
                </mxCell>
                <mxCell id="528" value="child_gender" style="shape=partialRectangle;connectable=0;fillColor=#CCCCCC;top=0;left=1;bottom=0;right=1;align=left;spacingLeft=6;overflow=hidden;fillStyle=auto;strokeColor=#D79B00;strokeWidth=1;fontColor=#000000;fontStyle=1;spacing=0;" vertex="1" parent="526">
                    <mxGeometry x="30" width="150" height="20" as="geometry">
                        <mxRectangle width="150" height="20" as="alternateBounds"/>
                    </mxGeometry>
                </mxCell>
                <mxCell id="532" value="page_cover" style="shape=table;startSize=20;container=1;collapsible=1;childLayout=tableLayout;fixedRows=1;rowLines=0;fontStyle=1;align=center;resizeLast=1;fillStyle=auto;strokeColor=#D79B00;strokeWidth=1;fontColor=#000000;fillColor=#D79B00;gradientColor=none;gradientDirection=radial;verticalAlign=middle;rounded=0;shadow=0;spacing=0;" vertex="1" parent="1">
                    <mxGeometry x="280" y="360" width="180" height="260" as="geometry"/>
                </mxCell>
                <mxCell id="533" value="" style="shape=tableRow;horizontal=0;startSize=0;swimlaneHead=0;swimlaneBody=0;fillColor=none;collapsible=0;dropTarget=0;points=[[0,0.5],[1,0.5]];portConstraint=eastwest;top=0;left=0;right=0;bottom=1;fillStyle=auto;strokeColor=#D79B00;strokeWidth=1;fontColor=#000000;" vertex="1" parent="532">
                    <mxGeometry y="20" width="180" height="20" as="geometry"/>
                </mxCell>
                <mxCell id="534" value="PK" style="shape=partialRectangle;connectable=0;fillColor=#FFFFFF;top=1;left=1;bottom=1;right=1;fontStyle=1;overflow=hidden;fillStyle=auto;strokeColor=#D79B00;strokeWidth=1;fontColor=#000000;gradientColor=none;align=center;spacingLeft=0;labelBackgroundColor=none;dashed=1;dashPattern=1 1;spacing=0;" vertex="1" parent="533">
                    <mxGeometry width="30" height="20" as="geometry">
                        <mxRectangle width="30" height="20" as="alternateBounds"/>
                    </mxGeometry>
                </mxCell>
                <mxCell id="535" value="id" style="shape=partialRectangle;connectable=0;fillColor=#FFFFFF;top=1;left=1;bottom=1;right=1;align=left;spacingLeft=6;fontStyle=5;overflow=hidden;fillStyle=auto;strokeColor=#D79B00;strokeWidth=1;fontColor=#000000;labelBackgroundColor=none;dashed=1;dashPattern=1 1;noLabel=0;portConstraintRotation=0;spacing=0;" vertex="1" parent="533">
                    <mxGeometry x="30" width="150" height="20" as="geometry">
                        <mxRectangle width="150" height="20" as="alternateBounds"/>
                    </mxGeometry>
                </mxCell>
                <mxCell id="536" value="" style="shape=tableRow;horizontal=1;startSize=0;swimlaneHead=0;swimlaneBody=0;fillColor=none;collapsible=0;dropTarget=0;points=[[0,0.5],[1,0.5]];portConstraint=eastwest;top=0;left=0;right=0;bottom=0;fillStyle=auto;strokeColor=#D79B00;strokeWidth=1;fontColor=#000000;swimlaneFillColor=default;labelBorderColor=none;labelBackgroundColor=#FF3333;" vertex="1" parent="532">
                    <mxGeometry y="40" width="180" height="20" as="geometry"/>
                </mxCell>
                <mxCell id="537" value="" style="shape=partialRectangle;connectable=0;fillColor=#CCCCCC;top=1;left=1;bottom=0;right=0;editable=1;overflow=hidden;fillStyle=auto;strokeColor=#D79B00;strokeWidth=1;fontColor=#000000;spacing=0;" vertex="1" parent="536">
                    <mxGeometry width="30" height="20" as="geometry">
                        <mxRectangle width="30" height="20" as="alternateBounds"/>
                    </mxGeometry>
                </mxCell>
                <mxCell id="538" value="issue_date" style="shape=partialRectangle;connectable=0;fillColor=#CCCCCC;top=1;left=1;bottom=0;right=1;align=left;spacingLeft=6;overflow=hidden;fillStyle=auto;strokeColor=#D79B00;strokeWidth=1;fontColor=#000000;fontStyle=1;perimeterSpacing=0;spacing=0;" vertex="1" parent="536">
                    <mxGeometry x="30" width="150" height="20" as="geometry">
                        <mxRectangle width="150" height="20" as="alternateBounds"/>
                    </mxGeometry>
                </mxCell>
                <mxCell id="539" value="" style="shape=tableRow;horizontal=0;startSize=0;swimlaneHead=0;swimlaneBody=0;fillColor=none;collapsible=0;dropTarget=0;points=[[0,0.5],[1,0.5]];portConstraint=eastwest;top=0;left=0;right=0;bottom=0;fillStyle=auto;strokeColor=none;strokeWidth=0;fontColor=#000000;" vertex="1" parent="532">
                    <mxGeometry y="60" width="180" height="20" as="geometry"/>
                </mxCell>
                <mxCell id="540" value="" style="shape=partialRectangle;connectable=0;fillColor=#FFFFFF;top=0;left=1;bottom=0;right=1;editable=1;overflow=hidden;fillStyle=auto;strokeColor=#D79B00;strokeWidth=1;fontColor=#000000;spacing=0;" vertex="1" parent="539">
                    <mxGeometry width="30" height="20" as="geometry">
                        <mxRectangle width="30" height="20" as="alternateBounds"/>
                    </mxGeometry>
                </mxCell>
                <mxCell id="541" value="user_id" style="shape=partialRectangle;connectable=0;fillColor=#FFFFFF;top=0;left=1;bottom=0;right=1;align=left;spacingLeft=6;overflow=hidden;fillStyle=auto;strokeColor=#D79B00;strokeWidth=1;fontColor=#000000;fontStyle=1;spacing=0;" vertex="1" parent="539">
                    <mxGeometry x="30" width="150" height="20" as="geometry">
                        <mxRectangle width="150" height="20" as="alternateBounds"/>
                    </mxGeometry>
                </mxCell>
                <mxCell id="542" value="" style="shape=tableRow;horizontal=0;startSize=0;swimlaneHead=0;swimlaneBody=0;fillColor=none;collapsible=0;dropTarget=0;points=[[0,0.5],[1,0.5]];portConstraint=eastwest;top=0;left=0;right=0;bottom=0;fillStyle=auto;strokeColor=none;strokeWidth=0;fontColor=#000000;" vertex="1" parent="532">
                    <mxGeometry y="80" width="180" height="20" as="geometry"/>
                </mxCell>
                <mxCell id="543" value="" style="shape=partialRectangle;connectable=0;fillColor=#CCCCCC;top=0;left=1;bottom=0;right=1;editable=1;overflow=hidden;fillStyle=auto;strokeColor=#D79B00;strokeWidth=1;fontColor=#000000;spacing=0;" vertex="1" parent="542">
                    <mxGeometry width="30" height="20" as="geometry">
                        <mxRectangle width="30" height="20" as="alternateBounds"/>
                    </mxGeometry>
                </mxCell>
                <mxCell id="544" value="parent_fullname1" style="shape=partialRectangle;connectable=0;fillColor=#CCCCCC;top=0;left=1;bottom=0;right=1;align=left;spacingLeft=6;overflow=hidden;fillStyle=auto;strokeColor=#D79B00;strokeWidth=1;fontColor=#000000;fontStyle=1;spacing=0;" vertex="1" parent="542">
                    <mxGeometry x="30" width="150" height="20" as="geometry">
                        <mxRectangle width="150" height="20" as="alternateBounds"/>
                    </mxGeometry>
                </mxCell>
                <mxCell id="545" value="" style="shape=tableRow;horizontal=0;startSize=0;swimlaneHead=0;swimlaneBody=0;fillColor=none;collapsible=0;dropTarget=0;points=[[0,0.5],[1,0.5]];portConstraint=eastwest;top=0;left=0;right=0;bottom=0;fillStyle=auto;strokeColor=none;strokeWidth=0;fontColor=#000000;" vertex="1" parent="532">
                    <mxGeometry y="100" width="180" height="20" as="geometry"/>
                </mxCell>
                <mxCell id="546" value="" style="shape=partialRectangle;connectable=0;fillColor=#FFFFFF;top=0;left=1;bottom=0;right=1;editable=1;overflow=hidden;fillStyle=auto;strokeColor=#D79B00;strokeWidth=1;fontColor=#000000;spacing=0;" vertex="1" parent="545">
                    <mxGeometry width="30" height="20" as="geometry">
                        <mxRectangle width="30" height="20" as="alternateBounds"/>
                    </mxGeometry>
                </mxCell>
                <mxCell id="547" value="parent_fullname_huri1" style="shape=partialRectangle;connectable=0;fillColor=#FFFFFF;top=0;left=1;bottom=0;right=1;align=left;spacingLeft=6;overflow=hidden;fillStyle=auto;strokeColor=#D79B00;strokeWidth=1;fontColor=#000000;fontStyle=1;spacing=0;" vertex="1" parent="545">
                    <mxGeometry x="30" width="150" height="20" as="geometry">
                        <mxRectangle width="150" height="20" as="alternateBounds"/>
                    </mxGeometry>
                </mxCell>
                <mxCell id="548" value="" style="shape=tableRow;horizontal=0;startSize=0;swimlaneHead=0;swimlaneBody=0;fillColor=none;collapsible=0;dropTarget=0;points=[[0,0.5],[1,0.5]];portConstraint=eastwest;top=0;left=0;right=0;bottom=0;fillStyle=auto;strokeColor=none;strokeWidth=0;fontColor=#000000;" vertex="1" parent="532">
                    <mxGeometry y="120" width="180" height="20" as="geometry"/>
                </mxCell>
                <mxCell id="549" value="" style="shape=partialRectangle;connectable=0;fillColor=#CCCCCC;top=0;left=1;bottom=0;right=1;editable=1;overflow=hidden;fillStyle=auto;strokeColor=#D79B00;strokeWidth=1;fontColor=#000000;spacing=0;" vertex="1" parent="548">
                    <mxGeometry width="30" height="20" as="geometry">
                        <mxRectangle width="30" height="20" as="alternateBounds"/>
                    </mxGeometry>
                </mxCell>
                <mxCell id="550" value="parent_fullname2" style="shape=partialRectangle;connectable=0;fillColor=#CCCCCC;top=0;left=1;bottom=0;right=1;align=left;spacingLeft=6;overflow=hidden;fillStyle=auto;strokeColor=#D79B00;strokeWidth=1;fontColor=#000000;fontStyle=1;spacing=0;" vertex="1" parent="548">
                    <mxGeometry x="30" width="150" height="20" as="geometry">
                        <mxRectangle width="150" height="20" as="alternateBounds"/>
                    </mxGeometry>
                </mxCell>
                <mxCell id="551" value="" style="shape=tableRow;horizontal=0;startSize=0;swimlaneHead=0;swimlaneBody=0;fillColor=none;collapsible=0;dropTarget=0;points=[[0,0.5],[1,0.5]];portConstraint=eastwest;top=0;left=0;right=0;bottom=0;fillStyle=auto;strokeColor=none;strokeWidth=0;fontColor=#000000;" vertex="1" parent="532">
                    <mxGeometry y="140" width="180" height="20" as="geometry"/>
                </mxCell>
                <mxCell id="552" value="" style="shape=partialRectangle;connectable=0;fillColor=#FFFFFF;top=0;left=1;bottom=0;right=1;editable=1;overflow=hidden;fillStyle=auto;strokeColor=#D79B00;strokeWidth=1;fontColor=#000000;spacing=0;" vertex="1" parent="551">
                    <mxGeometry width="30" height="20" as="geometry">
                        <mxRectangle width="30" height="20" as="alternateBounds"/>
                    </mxGeometry>
                </mxCell>
                <mxCell id="553" value="parent_fullname_huri2" style="shape=partialRectangle;connectable=0;fillColor=#FFFFFF;top=0;left=1;bottom=0;right=1;align=left;spacingLeft=6;overflow=hidden;fillStyle=auto;strokeColor=#D79B00;strokeWidth=1;fontColor=#000000;fontStyle=1;spacing=0;" vertex="1" parent="551">
                    <mxGeometry x="30" width="150" height="20" as="geometry">
                        <mxRectangle width="150" height="20" as="alternateBounds"/>
                    </mxGeometry>
                </mxCell>
                <mxCell id="554" style="shape=tableRow;horizontal=0;startSize=0;swimlaneHead=0;swimlaneBody=0;fillColor=none;collapsible=0;dropTarget=0;points=[[0,0.5],[1,0.5]];portConstraint=eastwest;top=0;left=0;right=0;bottom=0;fillStyle=auto;strokeColor=none;strokeWidth=0;fontColor=#000000;" vertex="1" parent="532">
                    <mxGeometry y="160" width="180" height="20" as="geometry"/>
                </mxCell>
                <mxCell id="555" style="shape=partialRectangle;connectable=0;fillColor=#CCCCCC;top=0;left=1;bottom=0;right=1;editable=1;overflow=hidden;fillStyle=auto;strokeColor=#D79B00;strokeWidth=1;fontColor=#000000;spacing=0;" vertex="1" parent="554">
                    <mxGeometry width="30" height="20" as="geometry">
                        <mxRectangle width="30" height="20" as="alternateBounds"/>
                    </mxGeometry>
                </mxCell>
                <mxCell id="556" value="child_fullname" style="shape=partialRectangle;connectable=0;fillColor=#CCCCCC;top=0;left=1;bottom=0;right=1;align=left;spacingLeft=6;overflow=hidden;fillStyle=auto;strokeColor=#D79B00;strokeWidth=1;fontColor=#000000;fontStyle=1;spacing=0;" vertex="1" parent="554">
                    <mxGeometry x="30" width="150" height="20" as="geometry">
                        <mxRectangle width="150" height="20" as="alternateBounds"/>
                    </mxGeometry>
                </mxCell>
                <mxCell id="557" style="shape=tableRow;horizontal=0;startSize=0;swimlaneHead=0;swimlaneBody=0;fillColor=none;collapsible=0;dropTarget=0;points=[[0,0.5],[1,0.5]];portConstraint=eastwest;top=0;left=0;right=0;bottom=0;fillStyle=auto;strokeColor=none;strokeWidth=0;fontColor=#000000;" vertex="1" parent="532">
                    <mxGeometry y="180" width="180" height="20" as="geometry"/>
                </mxCell>
                <mxCell id="558" style="shape=partialRectangle;connectable=0;fillColor=#FFFFFF;top=0;left=1;bottom=0;right=1;editable=1;overflow=hidden;fillStyle=auto;strokeColor=#D79B00;strokeWidth=1;fontColor=#000000;spacing=0;" vertex="1" parent="557">
                    <mxGeometry width="30" height="20" as="geometry">
                        <mxRectangle width="30" height="20" as="alternateBounds"/>
                    </mxGeometry>
                </mxCell>
                <mxCell id="559" value="child_fullname_huri" style="shape=partialRectangle;connectable=0;fillColor=#FFFFFF;top=0;left=1;bottom=0;right=1;align=left;spacingLeft=6;overflow=hidden;fillStyle=auto;strokeColor=#D79B00;strokeWidth=1;fontColor=#000000;fontStyle=1;spacing=0;" vertex="1" parent="557">
                    <mxGeometry x="30" width="150" height="20" as="geometry">
                        <mxRectangle width="150" height="20" as="alternateBounds"/>
                    </mxGeometry>
                </mxCell>
                <mxCell id="560" style="shape=tableRow;horizontal=0;startSize=0;swimlaneHead=0;swimlaneBody=0;fillColor=none;collapsible=0;dropTarget=0;points=[[0,0.5],[1,0.5]];portConstraint=eastwest;top=0;left=0;right=0;bottom=0;fillStyle=auto;strokeColor=none;strokeWidth=0;fontColor=#000000;" vertex="1" parent="532">
                    <mxGeometry y="200" width="180" height="20" as="geometry"/>
                </mxCell>
                <mxCell id="561" style="shape=partialRectangle;connectable=0;fillColor=#CCCCCC;top=0;left=1;bottom=0;right=1;editable=1;overflow=hidden;fillStyle=auto;strokeColor=#D79B00;strokeWidth=1;fontColor=#000000;spacing=0;" vertex="1" parent="560">
                    <mxGeometry width="30" height="20" as="geometry">
                        <mxRectangle width="30" height="20" as="alternateBounds"/>
                    </mxGeometry>
                </mxCell>
                <mxCell id="562" value="child_count" style="shape=partialRectangle;connectable=0;fillColor=#CCCCCC;top=0;left=1;bottom=0;right=1;align=left;spacingLeft=6;overflow=hidden;fillStyle=auto;strokeColor=#D79B00;strokeWidth=1;fontColor=#000000;fontStyle=1;spacing=0;" vertex="1" parent="560">
                    <mxGeometry x="30" width="150" height="20" as="geometry">
                        <mxRectangle width="150" height="20" as="alternateBounds"/>
                    </mxGeometry>
                </mxCell>
                <mxCell id="563" style="shape=tableRow;horizontal=0;startSize=0;swimlaneHead=0;swimlaneBody=0;fillColor=none;collapsible=0;dropTarget=0;points=[[0,0.5],[1,0.5]];portConstraint=eastwest;top=0;left=0;right=0;bottom=0;fillStyle=auto;strokeColor=none;strokeWidth=0;fontColor=#000000;" vertex="1" parent="532">
                    <mxGeometry y="220" width="180" height="20" as="geometry"/>
                </mxCell>
                <mxCell id="564" style="shape=partialRectangle;connectable=0;fillColor=#FFFFFF;top=0;left=1;bottom=0;right=1;editable=1;overflow=hidden;fillStyle=auto;strokeColor=#D79B00;strokeWidth=1;fontColor=#000000;spacing=0;" vertex="1" parent="563">
                    <mxGeometry width="30" height="20" as="geometry">
                        <mxRectangle width="30" height="20" as="alternateBounds"/>
                    </mxGeometry>
                </mxCell>
                <mxCell id="565" value="child_birthday" style="shape=partialRectangle;connectable=0;fillColor=#FFFFFF;top=0;left=1;bottom=0;right=1;align=left;spacingLeft=6;overflow=hidden;fillStyle=auto;strokeColor=#D79B00;strokeWidth=1;fontColor=#000000;fontStyle=1;spacing=0;" vertex="1" parent="563">
                    <mxGeometry x="30" width="150" height="20" as="geometry">
                        <mxRectangle width="150" height="20" as="alternateBounds"/>
                    </mxGeometry>
                </mxCell>
                <mxCell id="566" style="shape=tableRow;horizontal=0;startSize=0;swimlaneHead=0;swimlaneBody=0;fillColor=none;collapsible=0;dropTarget=0;points=[[0,0.5],[1,0.5]];portConstraint=eastwest;top=0;left=0;right=0;bottom=0;fillStyle=auto;strokeColor=none;strokeWidth=0;fontColor=#000000;" vertex="1" parent="532">
                    <mxGeometry y="240" width="180" height="20" as="geometry"/>
                </mxCell>
                <mxCell id="567" style="shape=partialRectangle;connectable=0;fillColor=#CCCCCC;top=0;left=1;bottom=0;right=1;editable=1;overflow=hidden;fillStyle=auto;strokeColor=#D79B00;strokeWidth=1;fontColor=#000000;spacing=0;" vertex="1" parent="566">
                    <mxGeometry width="30" height="20" as="geometry">
                        <mxRectangle width="30" height="20" as="alternateBounds"/>
                    </mxGeometry>
                </mxCell>
                <mxCell id="568" value="child_gender" style="shape=partialRectangle;connectable=0;fillColor=#CCCCCC;top=0;left=1;bottom=0;right=1;align=left;spacingLeft=6;overflow=hidden;fillStyle=auto;strokeColor=#D79B00;strokeWidth=1;fontColor=#000000;fontStyle=1;spacing=0;" vertex="1" parent="566">
                    <mxGeometry x="30" width="150" height="20" as="geometry">
                        <mxRectangle width="150" height="20" as="alternateBounds"/>
                    </mxGeometry>
                </mxCell>
            </root>
        </mxGraphModel>
    </diagram>
</mxfile>